<?xml version="1.0" encoding="iso-8859-1"?>
<!-- Generator: Adobe Illustrator 19.0.0, SVG Export Plug-In . SVG Version: 6.00 Build 0)  -->
<svg version="1.1" id="Capa_1" xmlns="http://www.w3.org/2000/svg" xmlns:xlink="http://www.w3.org/1999/xlink" x="0px" y="0px"
	 viewBox="0 0 385.243 385.243" style="enable-background:new 0 0 385.243 385.243;" xml:space="preserve">
<g>
	<path style="fill:#DB5526;" d="M300.262,149.564v144c-0.022,6.839-5.561,12.378-12.4,12.4H97.382
		c-6.839-0.022-12.378-5.561-12.4-12.4v-144c1.442-0.877,2.784-1.909,4-3.08l104-104l104,104
		C297.972,147.615,299.07,148.647,300.262,149.564L300.262,149.564z"/>
	<g>
		<path style="fill:#F48120;" d="M329.062,126.724l-120-120c-9.018-8.965-23.582-8.965-32.6,0l-120,120
			c-8.007,9.89-6.481,24.398,3.409,32.405c8.362,6.77,20.297,6.852,28.751,0.195l104-104l104,104c9.002,9.002,23.598,9.002,32.6,0
			s9.002-23.598,0-32.6H329.062z"/>
		<path style="fill:#F48120;" d="M192.022,195.404h1.16c22.846,0.044,41.356,18.554,41.4,41.4v69h-84v-69
			C150.626,213.942,169.16,195.426,192.022,195.404z"/>
		<path style="fill:#F48120;" d="M211.382,313.084v66.64c0,3.049-2.471,5.52-5.52,5.52h-26.48c-3.049,0-5.52-2.471-5.52-5.52v-66.64
			H42.502c-4.032,0-7.3-3.268-7.3-7.3c0-4.032,3.268-7.3,7.3-7.3h300.24c4.032,0,7.3,3.268,7.3,7.3c0,4.032-3.268,7.3-7.3,7.3l0,0
			L211.382,313.084z"/>
	</g>
</g>
<g>
</g>
<g>
</g>
<g>
</g>
<g>
</g>
<g>
</g>
<g>
</g>
<g>
</g>
<g>
</g>
<g>
</g>
<g>
</g>
<g>
</g>
<g>
</g>
<g>
</g>
<g>
</g>
<g>
</g>
</svg>
